# xmcd
#
# Track frame offsets:
#	150
#	12562
#	26852
#	42128
#	55793
#	71539
#	82061
#	95711
#	109508
#	123184
#
# Disc length: 1814 seconds
#
# Revision: 0
# Processed by: cddbd v1.5.2PL0 Copyright (c) Steve Scherf et al.
# Submitted via: EZCDAudioConverter 5.4.0.1
#
DISCID=8107140a
DTITLE="PRELDŽIJE " ŽARE I MILENKO  - ALO TAXI
DYEAR=2015
DGENRE=ETNO
TTITLE0=ALO TAXI
TTITLE1=ŠLJIVOVICA
TTITLE2=PRELDŽIJA SI I BARABA duet sa Verom Matović
TTITLE3=DALEKO SI RODNI KRAJU
TTITLE4=GLAMOČKE PRELDŽIJE
TTITLE5=SAMARICA
TTITLE6=BOŽIĆ
TTITLE7=OJ, KAFANO
TTITLE8=NE TUGUJ MI RADOJKA
TTITLE9=ĐE VJETROVI HLADNI BIJU
EXTD=
EXTT0=
EXTT1=
EXTT2=
EXTT3=
EXTT4=
EXTT5=
EXTT6=
EXTT7=
EXTT8=
EXTT9=
PLAYORDER=
